# xmcd
#
# Track frame offsets:
#	183
#	33885
#	52083
#	70085
#
# Disc length: 1145 seconds
# Revision: 0
# Processed by: cddbd v1.5.2PL0 Copyright (c) Steve Scherf et al.
# Submitted via: dBpowerAMP V12.0
#
DISCID=2f047704
DTITLE=Sybil - Don't Make Me Over
DYEAR=1989
DGENRE=New Jack Swing
TTITLE0=Don’t Make Me Over [The KING-dom Come Mix]
TTITLE1=Don’t Make Me Over [Radio]
TTITLE2=Here Comes My Love [Vocal]
TTITLE3=Don’t Make Me Over [Instrumental Version]
EXTD=
EXTT0=
EXTT1=
EXTT2=
EXTT3=
PLAYORDER=
